<?xml version="1.0" standalone="no"?>
<!DOCTYPE svg PUBLIC "-//W3C//DTD SVG 20010904//EN"
 "http://www.w3.org/TR/2001/REC-SVG-20010904/DTD/svg10.dtd">
<svg version="1.0" xmlns="http://www.w3.org/2000/svg"
 width="63.000000pt" height="85.000000pt" viewBox="0 0 63.000000 85.000000"
 preserveAspectRatio="xMidYMid meet">

<g transform="translate(0.000000,85.000000) scale(0.100000,-0.100000)"
fill="#DD102A" stroke="none">
<path d="M195 570 c-118 -237 -120 -242 -120 -308 1 -125 84 -224 208 -247
l37 -7 0 401 c0 220 -1 401 -3 401 -1 0 -56 -108 -122 -240z"/>
<path d="M331 504 l-1 -302 36 8 c86 20 148 97 148 185 0 43 -13 76 -92 230
l-91 180 0 -301z"/>
<path d="M435 224 c-11 -8 -39 -20 -62 -26 l-43 -10 0 -90 0 -90 37 7 c77 14
142 63 178 133 21 42 14 59 -30 77 -43 19 -55 18 -80 -1z"/>
</g>
</svg>
